<svg id="_x31_px" enable-background="new 0 0 24 24" height="512" viewBox="0 0 24 24" width="512" xmlns="http://www.w3.org/2000/svg"><path fill="white" d="m23.5 21h-23c-.276 0-.5-.224-.5-.5s.224-.5.5-.5h23c.276 0 .5.224.5.5s-.224.5-.5.5z"/><path fill="white" d="m21.5 21c-.276 0-.5-.224-.5-.5v-9c0-.276.224-.5.5-.5s.5.224.5.5v9c0 .276-.224.5-.5.5z"/><path fill="white" d="m2.5 21c-.276 0-.5-.224-.5-.5v-11.5c0-1.103.897-2 2-2h2.5c.276 0 .5.224.5.5s-.224.5-.5.5h-2.5c-.551 0-1 .449-1 1v11.5c0 .276-.224.5-.5.5z"/><path fill="white" d="m14 13c-.13 0-.258-.051-.354-.146l-4.5-4.5c-.195-.195-.195-.512 0-.707l4.5-4.5c.143-.143.358-.186.545-.108s.309.259.309.461v2.5h6c1.378 0 2.5-1.122 2.5-2.5 0-.276.224-.5.5-.5s.5.224.5.5v1c0 3.033-2.467 5.5-5.5 5.5h-4v2.5c0 .202-.122.385-.309.462-.062.026-.127.038-.191.038zm-3.793-5 3.293 3.293v-1.793c0-.276.224-.5.5-.5h4.5c1.853 0 3.449-1.126 4.137-2.73-.591.458-1.333.73-2.137.73h-6.5c-.276 0-.5-.224-.5-.5v-1.793z"/></svg>