<?xml version="1.0"?>
<svg xmlns="http://www.w3.org/2000/svg" width="512" height="512" viewBox="0 0 128 128"><g><path fill="white" d="M121.693,29.624H84.358V13.818a1.75,1.75,0,0,0-1.75-1.75H45.392a1.75,1.75,0,0,0-1.75,1.75V29.624H6.307a1.749,1.749,0,0,0-1.75,1.75v82.808a1.75,1.75,0,0,0,1.75,1.75H121.693a1.75,1.75,0,0,0,1.75-1.75V31.374A1.749,1.749,0,0,0,121.693,29.624ZM47.142,15.568H80.858V29.624H76.831v-8.4a1.749,1.749,0,0,0-1.75-1.75H52.919a1.749,1.749,0,0,0-1.75,1.75v8.4H47.142Zm7.527,14.056V22.973H73.331v6.651Zm-46.612,3.5H119.943V52.835H8.057ZM99.3,56.335h3.435v9.4H99.3Zm-74.029,0H28.7v9.4H25.268Zm-17.211,56.1v-56.1H21.768V67.48a1.749,1.749,0,0,0,1.75,1.75h6.935a1.749,1.749,0,0,0,1.75-1.75V56.335H95.8V67.48a1.749,1.749,0,0,0,1.75,1.75h6.935a1.749,1.749,0,0,0,1.75-1.75V56.335h13.711v56.1Z"/><path fill="white"  d="M82.231,81.674A11.094,11.094,0,0,0,84.25,68.69a1.75,1.75,0,0,0-2.792-.433L75.6,74.114l-1.667.114.113-1.667L79.9,66.7a1.75,1.75,0,0,0-.433-2.792A11.134,11.134,0,0,0,63.938,77.72l-3.3,3.3L45.857,66.243a1.75,1.75,0,0,0-2.474,2.475L58.161,83.5,43.856,97.8a4.6,4.6,0,0,0,6.5,6.5l11.37-11.371a6.058,6.058,0,0,0,.921,1.222L72.8,104.307a6.126,6.126,0,0,0,8.647,0h0a6.123,6.123,0,0,0,0-8.648L71.3,85.51a6.092,6.092,0,0,0-1.223-.921l.366-.366A11.085,11.085,0,0,0,82.231,81.674ZM67.262,79.346a1.75,1.75,0,0,0,.317-2.041A7.637,7.637,0,0,1,75.42,66.238L71.108,70.55a1.755,1.755,0,0,0-.508,1.118l-.294,4.322a1.75,1.75,0,0,0,.508,1.357,1.721,1.721,0,0,0,1.357.508l4.322-.293a1.756,1.756,0,0,0,1.118-.509l4.312-4.312a7.637,7.637,0,0,1-11.067,7.841,1.747,1.747,0,0,0-2.041.317l-2.927,2.928a6.085,6.085,0,0,0-1.8.649l-.979-.979ZM47.885,101.831a1.1,1.1,0,0,1-1.554-1.555l14.305-14.3.979.979a6.081,6.081,0,0,0-.649,1.8Zm31.086-3.7a2.615,2.615,0,0,1-3.7,3.7L65.125,91.683a2.615,2.615,0,0,1,3.7-3.7Z"/><path fill="white" d="M37.722,46.339a1.75,1.75,0,0,0-1.75-1.75H17.748a1.75,1.75,0,0,0,0,3.5H35.972A1.75,1.75,0,0,0,37.722,46.339Z"/><path fill="white" d="M44.1,48.089h3.408a1.75,1.75,0,0,0,0-3.5H44.1a1.75,1.75,0,0,0,0,3.5Z"/></g></svg>
