<svg height="512" viewBox="0 0 128 128" width="512" xmlns="http://www.w3.org/2000/svg"><g><path d="m109.057 112.206-14.7-25.03-13.982-23.823v-28.1h1.75a8.25 8.25 0 0 0 0-16.5h-1.75v-8.006a10.762 10.762 0 0 0 -10.75-10.747h-11.25a10.762 10.762 0 0 0 -10.75 10.75v8.009h-1.75a8.25 8.25 0 0 0 0 16.5h1.75v28.1l-14.616 24.888-14.066 23.959a10.483 10.483 0 0 0 9.04 15.794h72.034a10.483 10.483 0 0 0 9.04-15.791zm-57.932-101.459a7.258 7.258 0 0 1 7.25-7.25h11.25a7.258 7.258 0 0 1 7.25 7.25v8.009h-25.75zm-10 16.259a4.756 4.756 0 0 1 4.75-4.75h36.25a4.75 4.75 0 0 1 0 9.5h-36.25a4.756 4.756 0 0 1 -4.75-4.75zm9.408 38.307a1.751 1.751 0 0 0 .592-1.313v-28.744h25.75v28.744a1.751 1.751 0 0 0 .592 1.313l11.815 20.124a51.936 51.936 0 0 0 -25.821 1.585 48.409 48.409 0 0 1 -26.263 1zm49.484 59.187h-72.034a6.984 6.984 0 0 1 -6.022-10.519l13.387-22.8a51.914 51.914 0 0 0 29.189-.824 48.461 48.461 0 0 1 27.17-.787l14.332 24.412a6.984 6.984 0 0 1 -6.022 10.519z"/><path d="m74.188 95.75a9.938 9.938 0 1 0 9.937 9.938 9.949 9.949 0 0 0 -9.937-9.938zm0 16.375a6.438 6.438 0 1 1 6.437-6.437 6.445 6.445 0 0 1 -6.437 6.437z"/><path d="m50.531 100a6.657 6.657 0 1 0 6.657 6.656 6.664 6.664 0 0 0 -6.657-6.656zm0 9.813a3.157 3.157 0 1 1 3.157-3.157 3.16 3.16 0 0 1 -3.157 3.157z"/></g></svg>