<svg height="511pt" viewBox="0 -1 511.99923 511" width="511pt" xmlns="http://www.w3.org/2000/svg"><path d="m282.671875 289.46875 139.285156 139.285156c1.464844 1.464844 3.386719 2.195313 5.304688 2.195313s3.839843-.730469 5.300781-2.195313c2.929688-2.929687 2.929688-7.675781 0-10.605468l-139.285156-139.285157c-2.929688-2.929687-7.679688-2.929687-10.605469 0-2.929687 2.929688-2.929687 7.675781 0 10.605469zm0 0"/><path d="m163.460938 159.652344c-2.929688 2.929687-2.929688 7.675781 0 10.605468l37.621093 37.621094c1.464844 1.464844 3.382813 2.195313 5.304688 2.195313 1.917969 0 3.835937-.730469 5.300781-2.195313 2.929688-2.929687 2.929688-7.675781 0-10.605468l-37.621094-37.621094c-2.929687-2.929688-7.675781-2.929688-10.605468 0zm0 0"/><path d="m252.175781 290.394531 120.796875-133.6875 8.988282 8.070313c2.589843 2.320312 5.835937 3.464844 9.070312 3.464844 3.714844 0 7.417969-1.507813 10.09375-4.46875l2.375-2.628907 8.453125 7.636719-3.355469 3.710938c-3.664062 4.054687-5.527344 9.289062-5.25 14.746093.277344 5.453125 2.660156 10.476563 6.710938 14.136719l20.363281 18.398438c3.789063 3.425781 8.613281 5.277343 13.683594 5.277343.351562 0 .707031-.007812 1.058593-.027343 5.457032-.273438 10.476563-2.660157 14.140626-6.710938l45.191406-50.019531c7.558594-8.367188 6.902344-21.320313-1.460938-28.882813l-20.363281-18.398437c-4.050781-3.660157-9.285156-5.519531-14.742187-5.25-5.179688.261719-9.96875 2.425781-13.578126 6.113281l-8.460937-7.644531 3.050781-3.382813c5.023438-5.554687 4.589844-14.164062-.964844-19.191406l-67.679687-61.234375v-.003906c-18.371094-16.597657-42.332031-27.039063-67.46875-29.40625-25.058594-2.359375-48.613281 3.480469-66.328125 16.429687-4.449219 3.25-6.488281 8.8125-5.199219 14.167969 1.292969 5.355469 5.644531 9.375 11.085938 10.238281 51.265625 8.148438 65.1875 24.664063 68.792969 31.386719 3.644531 6.796875 3.410156 14.496094-.71875 23.53125-1.859376 4.074219-1.589844 8.648437.527343 12.363281l-121.097656 134.027344c-6.210937-3.5625-14.292969-2.457031-19.285156 3.0625l-8.984375 9.945312c-5.019532 5.554688-5.273438 13.773438-1.023438 19.597657l-31.285156 22.128906c-.046875.035156-.09375.066406-.140625.101563-12.59375 9.34375-24.3125 19.980468-34.824219 31.617187l-89.675781 99.246094c-17.804687 19.703125-16.257813 50.21875 3.445313 68.023437 8.925781 8.066406 20.289062 12.429688 32.230468 12.429688.828125 0 1.660156-.019532 2.496094-.0625 12.847656-.648438 24.671875-6.265625 33.296875-15.8125l89.679687-99.246094c10.511719-11.632812 19.910157-24.367188 27.933594-37.84375.027344-.046875.058594-.097656.085938-.144531l18.851562-33.363281c2.363282 1.390624 5.050782 2.125 7.839844 2.125.265625 0 .535156-.007813.804688-.019532 4.148437-.210937 7.96875-2.023437 10.753906-5.105468l8.984375-9.945313c2.785156-3.082031 4.203125-7.0625 3.992187-11.214844-.152344-3.027343-1.160156-5.878906-2.890625-8.28125zm-10.894531-10.316406-30.023438-27.128906 120.429688-133.285157 30.117188 27.027344zm227.40625-149.332031c1.457031-.070313 2.847656.421875 3.929688 1.398437l20.359374 18.394531c2.230469 2.015626 2.40625 5.46875.390626 7.695313l-45.191407 50.019531c-.976562 1.078125-2.316406 1.714844-3.769531 1.789063-1.449219.074219-2.847656-.425781-3.925781-1.398438l-20.363281-18.398437c-2.230469-2.015625-2.40625-5.464844-.390626-7.695313l45.195313-50.015625c.976563-1.082031 2.3125-1.714844 3.765625-1.789062zm-24.402344 2.25-22.273437 24.65625-8.453125-7.636719 22.277344-24.65625zm-186.113281-105.394532c31.203125-20.347656 80.648437-14.4375 112.0625 13.941407l66.636719 60.292969-45.933594 50.839843-56.410156-50.617187c5.703125-13.042969 5.664062-25.121094-.128906-35.917969-12.871094-23.996094-51.863282-34.332031-76.226563-38.539063zm-67.347656 321.140626c-7.511719 12.601562-16.304688 24.507812-26.136719 35.386718l-89.675781 99.246094c-5.9375 6.574219-14.082031 10.441406-22.929688 10.890625-8.847656.449219-17.335937-2.578125-23.910156-8.515625-6.570313-5.9375-10.4375-14.082031-10.882813-22.925781-.449218-8.847657 2.574219-17.339844 8.511719-23.910157l89.679688-99.25c9.832031-10.878906 20.785156-20.828124 32.5625-29.574218l33.691406-23.828125 29.386719 26.554687zm49.117187-48.910157-8.984375 9.945313c-.035156.042968-.152343.167968-.382812.179687-.230469-.011719-.355469-.101562-.394531-.140625l-47.386719-42.8125c-.226563-.207031-.242188-.558594-.039063-.78125l8.984375-9.945312c.207031-.226563.554688-.242188.78125-.039063l47.382813 42.816407c.042968.035156.171875.152343.183594.378906.011718.230468-.105469.359375-.144532.398437zm0 0"/><path d="m33.710938 164.402344c19.496093 15.773437 45.789062 22.316406 72.132812 17.957031 10.785156-1.789063 21.964844 1.886719 29.902344 9.824219l35.128906 35.125c1.460938 1.464844 3.382812 2.195312 5.300781 2.195312 1.921875 0 3.839844-.730468 5.304688-2.195312 2.929687-2.929688 2.929687-7.679688 0-10.609375l-35.125-35.125c-11.355469-11.351563-27.414063-16.589844-42.960938-14.015625-22.121093 3.664062-44.082031-1.738282-60.25-14.820313-18.445312-14.921875-28.800781-37.625-28.113281-61.265625l45.230469 36.59375c12.625 10.214844 31.203125 8.253906 41.410156-4.371094l20.777344-25.675781c4.945312-6.117187 7.214843-13.789062 6.390625-21.609375-.824219-7.824218-4.648438-14.855468-10.761719-19.800781l-45.234375-36.597656c24.050781-5.886719 49.257812.199219 68.027344 16.585937 16.503906 14.410156 25.445312 36.378906 24.527344 60.273438-.542969 14.214844 4.761718 27.984375 14.554687 37.78125l45.859375 45.859375c2.929688 2.925781 7.675781 2.925781 10.605469 0 2.929687-2.929688 2.929687-7.679688 0-10.609375l-45.859375-45.855469c-6.847656-6.851563-10.554688-16.546875-10.167969-26.601563 1.089844-28.445312-9.71875-54.742187-29.65625-72.148437-23.46875-20.488281-55.347656-27.53125-85.273437-18.832031-4.765626 1.382812-8.332032 5.269531-9.3125 10.140625-.984376 4.875.808593 9.847656 4.671874 12.976562l47.820313 38.6875c3 2.425781 4.875 5.875 5.28125 9.714844.40625 3.835937-.707031 7.601563-3.136719 10.601563l-20.773437 25.679687c-5.011719 6.1875-14.121094 7.152344-20.3125 2.140625l-47.816407-38.6875c-3.867187-3.128906-9.109374-3.839844-13.679687-1.863281-4.550781 1.976562-7.601563 6.265625-7.960937 11.207031-2.167969 29.71875 10.34375 58.628906 33.46875 77.339844zm0 0"/><path d="m499.289062 432.773438-181.28125-181.28125c-2.929687-2.925782-7.679687-2.925782-10.605468 0-2.929688 2.929687-2.929688 7.679687 0 10.609374l181.28125 181.277344c11.097656 11.101563 11.097656 29.164063 0 40.261719-11.101563 11.097656-29.160156 11.105469-40.253906.003906l-170.898438-170.894531c-2.929688-2.929688-7.679688-2.929688-10.609375 0-2.925781 2.929688-2.925781 7.675781 0 10.605469l170.898437 170.898437c8.472657 8.472656 19.601563 12.707032 30.730469 12.707032 11.128907 0 22.265625-4.238282 30.738281-12.714844 16.945313-16.945313 16.945313-44.523438 0-61.472656zm0 0"/></svg>