<svg height="512pt" viewBox="-1 0 512 512" width="512pt" xmlns="http://www.w3.org/2000/svg"><path d="m195 362h-20c-19.300781 0-35 15.699219-35 35v80c0 19.300781 15.699219 35 35 35h20c19.300781 0 35-15.699219 35-35v-80c0-19.300781-15.699219-35-35-35zm5 115c0 2.757812-2.242188 5-5 5h-20c-2.757812 0-5-2.242188-5-5v-80c0-2.757812 2.242188-5 5-5h20c2.757812 0 5 2.242188 5 5zm0 0"/><path d="m75 482h-15v-105c0-8.285156-6.714844-15-15-15h-30c-8.285156 0-15 6.714844-15 15s6.714844 15 15 15h15v90h-15c-8.285156 0-15 6.714844-15 15s6.714844 15 15 15h60c8.285156 0 15-6.714844 15-15s-6.714844-15-15-15zm0 0"/><path d="m475 362h-20c-19.300781 0-35 15.699219-35 35v80c0 19.300781 15.699219 35 35 35h20c19.300781 0 35-15.699219 35-35v-80c0-19.300781-15.699219-35-35-35zm5 115c0 2.757812-2.242188 5-5 5h-20c-2.757812 0-5-2.242188-5-5v-80c0-2.757812 2.242188-5 5-5h20c2.757812 0 5 2.242188 5 5zm0 0"/><path d="m355 482h-15v-105c0-8.285156-6.714844-15-15-15h-30c-8.285156 0-15 6.714844-15 15s6.714844 15 15 15h15v90h-15c-8.285156 0-15 6.714844-15 15s6.714844 15 15 15h60c8.285156 0 15-6.714844 15-15s-6.714844-15-15-15zm0 0"/><path d="m195 181h-20c-19.300781 0-35 15.699219-35 35v80c0 19.300781 15.699219 35 35 35h20c19.300781 0 35-15.699219 35-35v-80c0-19.300781-15.699219-35-35-35zm5 115c0 2.757812-2.242188 5-5 5h-20c-2.757812 0-5-2.242188-5-5v-80c0-2.757812 2.242188-5 5-5h20c2.757812 0 5 2.242188 5 5zm0 0"/><path d="m75 301h-15v-105c0-8.285156-6.714844-15-15-15h-30c-8.285156 0-15 6.714844-15 15s6.714844 15 15 15h15v90h-15c-8.285156 0-15 6.714844-15 15s6.714844 15 15 15h60c8.285156 0 15-6.714844 15-15s-6.714844-15-15-15zm0 0"/><path d="m335 181h-20c-19.300781 0-35 15.699219-35 35v80c0 19.300781 15.699219 35 35 35h20c19.300781 0 35-15.699219 35-35v-80c0-19.300781-15.699219-35-35-35zm5 115c0 2.757812-2.242188 5-5 5h-20c-2.757812 0-5-2.242188-5-5v-80c0-2.757812 2.242188-5 5-5h20c2.757812 0 5 2.242188 5 5zm0 0"/><path d="m495 301h-15v-105c0-8.285156-6.714844-15-15-15h-30c-8.285156 0-15 6.714844-15 15s6.714844 15 15 15h15v90h-15c-8.285156 0-15 6.714844-15 15s6.714844 15 15 15h60c8.285156 0 15-6.714844 15-15s-6.714844-15-15-15zm0 0"/><path d="m55 0h-20c-19.300781 0-35 15.699219-35 35v80c0 19.300781 15.699219 35 35 35h20c19.300781 0 35-15.699219 35-35v-80c0-19.300781-15.699219-35-35-35zm5 115c0 2.757812-2.242188 5-5 5h-20c-2.757812 0-5-2.242188-5-5v-80c0-2.757812 2.242188-5 5-5h20c2.757812 0 5 2.242188 5 5zm0 0"/><path d="m215 120h-15v-105c0-8.285156-6.714844-15-15-15h-30c-8.285156 0-15 6.714844-15 15s6.714844 15 15 15h15v90h-15c-8.285156 0-15 6.714844-15 15s6.714844 15 15 15h60c8.285156 0 15-6.714844 15-15s-6.714844-15-15-15zm0 0"/><path d="m475 0h-20c-19.300781 0-35 15.699219-35 35v80c0 19.300781 15.699219 35 35 35h20c19.300781 0 35-15.699219 35-35v-80c0-19.300781-15.699219-35-35-35zm5 115c0 2.757812-2.242188 5-5 5h-20c-2.757812 0-5-2.242188-5-5v-80c0-2.757812 2.242188-5 5-5h20c2.757812 0 5 2.242188 5 5zm0 0"/><path d="m355 120h-15v-105c0-8.285156-6.714844-15-15-15h-30c-8.285156 0-15 6.714844-15 15s6.714844 15 15 15h15v90h-15c-8.285156 0-15 6.714844-15 15s6.714844 15 15 15h60c8.285156 0 15-6.714844 15-15s-6.714844-15-15-15zm0 0"/></svg>